<mxfile host="65bd71144e">
    <diagram id="nb6D_O6X7Rcv2qMw4YcD" name="Page-1">
        <mxGraphModel dx="604" dy="630" grid="1" gridSize="10" guides="1" tooltips="1" connect="1" arrows="1" fold="1" page="1" pageScale="1" pageWidth="850" pageHeight="1100" math="0" shadow="0">
            <root>
                <mxCell id="0"/>
                <mxCell id="1" parent="0"/>
                <mxCell id="3" value="" style="rounded=0;whiteSpace=wrap;html=1;fillColor=#FFFFFF;" vertex="1" parent="1">
                    <mxGeometry x="40" y="120" width="1060" height="870" as="geometry"/>
                </mxCell>
                <mxCell id="5" value="Client-Side" style="swimlane;whiteSpace=wrap;html=1;labelBackgroundColor=#FFFFFF;fontColor=#000000;fillColor=#FFFFFF;strokeColor=#000000;startSize=23;" vertex="1" parent="1">
                    <mxGeometry x="170" y="250" width="200" height="280" as="geometry"/>
                </mxCell>
                <mxCell id="6" value="React.js Frontend UI&#10;via Axios" style="shape=image;verticalLabelPosition=bottom;labelBackgroundColor=#FFFFFF;verticalAlign=top;aspect=fixed;imageAspect=0;image=https://upload.wikimedia.org/wikipedia/commons/thumb/a/a7/React-icon.svg/2300px-React-icon.svg.png;fontColor=#000000;" vertex="1" parent="5">
                    <mxGeometry x="64.34" y="103" width="71.33" height="62" as="geometry"/>
                </mxCell>
                <mxCell id="7" value="Server-Side" style="swimlane;whiteSpace=wrap;html=1;labelBackgroundColor=#FFFFFF;fontColor=#000000;fillColor=#FFFFFF;strokeColor=#000000;startSize=23;" vertex="1" parent="1">
                    <mxGeometry x="480" y="250" width="200" height="280" as="geometry"/>
                </mxCell>
                <mxCell id="8" value="Node,js Backend" style="shape=image;verticalLabelPosition=bottom;labelBackgroundColor=none;verticalAlign=top;aspect=fixed;imageAspect=0;image=https://upload.wikimedia.org/wikipedia/commons/thumb/d/d9/Node.js_logo.svg/1200px-Node.js_logo.svg.png;fontColor=#000000;" vertex="1" parent="7">
                    <mxGeometry x="40.47" y="73" width="119.05" height="72.81" as="geometry"/>
                </mxCell>
                <mxCell id="9" value="Express REST API Middleware" style="shape=image;verticalLabelPosition=bottom;labelBackgroundColor=#FFFFFF;verticalAlign=top;aspect=fixed;imageAspect=0;image=https://expressjs.com/images/express-facebook-share.png;fontColor=#000000;" vertex="1" parent="7">
                    <mxGeometry x="43.200000000000045" y="183" width="113.6" height="41" as="geometry"/>
                </mxCell>
                <mxCell id="10" value="Database" style="swimlane;whiteSpace=wrap;html=1;labelBackgroundColor=#FFFFFF;fontColor=#000000;fillColor=#FFFFFF;strokeColor=#000000;startSize=23;" vertex="1" parent="1">
                    <mxGeometry x="780" y="250" width="200" height="280" as="geometry"/>
                </mxCell>
                <mxCell id="11" value="MySQL Database" style="shape=image;verticalLabelPosition=bottom;labelBackgroundColor=none;verticalAlign=top;aspect=fixed;imageAspect=0;image=https://d1.awsstatic.com/asset-repository/products/amazon-rds/1024px-MySQL.ff87215b43fd7292af172e2a5d9b844217262571.png;fontColor=#000000;" vertex="1" parent="10">
                    <mxGeometry x="52.45" y="111.81" width="95.09" height="49.19" as="geometry"/>
                </mxCell>
                <mxCell id="12" value="" style="edgeStyle=orthogonalEdgeStyle;html=1;endArrow=block;elbow=vertical;startArrow=block;startFill=1;endFill=1;strokeColor=#545B64;rounded=0;fontColor=#000000;" edge="1" parent="1">
                    <mxGeometry width="100" relative="1" as="geometry">
                        <mxPoint x="696" y="400" as="sourcePoint"/>
                        <mxPoint x="766" y="400" as="targetPoint"/>
                    </mxGeometry>
                </mxCell>
                <mxCell id="13" value="" style="edgeStyle=orthogonalEdgeStyle;html=1;endArrow=block;elbow=vertical;startArrow=none;endFill=1;strokeColor=#545B64;rounded=0;fontColor=#000000;" edge="1" parent="1">
                    <mxGeometry width="100" relative="1" as="geometry">
                        <mxPoint x="390" y="379" as="sourcePoint"/>
                        <mxPoint x="460" y="379" as="targetPoint"/>
                    </mxGeometry>
                </mxCell>
                <mxCell id="14" value="" style="edgeStyle=orthogonalEdgeStyle;html=1;endArrow=none;elbow=vertical;startArrow=block;startFill=1;strokeColor=#545B64;rounded=0;fontColor=#000000;" edge="1" parent="1">
                    <mxGeometry width="100" relative="1" as="geometry">
                        <mxPoint x="390" y="409" as="sourcePoint"/>
                        <mxPoint x="455" y="409" as="targetPoint"/>
                    </mxGeometry>
                </mxCell>
                <mxCell id="15" value="HTTP Request" style="text;html=1;align=center;verticalAlign=middle;resizable=0;points=[];autosize=1;strokeColor=none;fillColor=none;fontColor=#000000;" vertex="1" parent="1">
                    <mxGeometry x="375" y="340" width="100" height="30" as="geometry"/>
                </mxCell>
                <mxCell id="16" value="HTTP Response" style="text;html=1;align=center;verticalAlign=middle;resizable=0;points=[];autosize=1;strokeColor=none;fillColor=none;fontColor=#000000;" vertex="1" parent="1">
                    <mxGeometry x="370" y="434" width="110" height="30" as="geometry"/>
                </mxCell>
                <mxCell id="17" value="" style="shape=image;verticalLabelPosition=bottom;labelBackgroundColor=default;verticalAlign=top;aspect=fixed;imageAspect=0;image=https://cdn-images-1.medium.com/max/1148/1*XcE0wR1ZmWLFbdF2dE5WuA.png;" vertex="1" parent="1">
                    <mxGeometry x="690" y="350" width="81.47" height="34" as="geometry"/>
                </mxCell>
                <mxCell id="18" value="JSON" style="text;html=1;align=center;verticalAlign=middle;resizable=0;points=[];autosize=1;strokeColor=none;fillColor=none;fontColor=#000000;" vertex="1" parent="1">
                    <mxGeometry x="395" y="380" width="60" height="30" as="geometry"/>
                </mxCell>
                <mxCell id="20" value="IoT Devices" style="swimlane;whiteSpace=wrap;html=1;labelBackgroundColor=#FFFFFF;fontColor=#000000;fillColor=#FFFFFF;strokeColor=#000000;startSize=23;" vertex="1" parent="1">
                    <mxGeometry x="175" y="610" width="200" height="170" as="geometry"/>
                </mxCell>
                <mxCell id="19" value="ESP32/Raspberry Pi&lt;br&gt;via PubSubClient/Requests" style="sketch=0;outlineConnect=0;fontColor=#232F3E;gradientColor=none;strokeColor=#232F3E;fillColor=#ffffff;dashed=0;verticalLabelPosition=bottom;verticalAlign=top;align=center;html=1;fontSize=12;fontStyle=0;aspect=fixed;shape=mxgraph.aws4.resourceIcon;resIcon=mxgraph.aws4.generic;" vertex="1" parent="20">
                    <mxGeometry x="70" y="55" width="60" height="60" as="geometry"/>
                </mxCell>
                <mxCell id="24" value="Mosquitto MQTT Broker&#10;(Hosted in EC2 Instance)" style="shape=image;verticalLabelPosition=bottom;labelBackgroundColor=#FFFFFF;verticalAlign=top;aspect=fixed;imageAspect=0;image=https://projects.eclipse.org/sites/default/files/mosquitto-200px.png;fontColor=#000000;" vertex="1" parent="1">
                    <mxGeometry x="535.99" y="661.5" width="68.02" height="67" as="geometry"/>
                </mxCell>
                <mxCell id="25" value="" style="edgeStyle=orthogonalEdgeStyle;html=1;endArrow=block;elbow=vertical;startArrow=block;startFill=1;endFill=1;strokeColor=#545B64;rounded=0;fontColor=#000000;" edge="1" parent="1">
                    <mxGeometry width="100" relative="1" as="geometry">
                        <mxPoint x="412" y="694.71" as="sourcePoint"/>
                        <mxPoint x="482" y="694.71" as="targetPoint"/>
                    </mxGeometry>
                </mxCell>
                <mxCell id="26" value="" style="edgeStyle=orthogonalEdgeStyle;html=1;endArrow=block;elbow=vertical;startArrow=block;startFill=1;endFill=1;strokeColor=#545B64;rounded=0;fontColor=#000000;" edge="1" parent="1">
                    <mxGeometry width="100" relative="1" as="geometry">
                        <mxPoint x="570" y="640" as="sourcePoint"/>
                        <mxPoint x="570" y="560" as="targetPoint"/>
                    </mxGeometry>
                </mxCell>
                <mxCell id="27" value="Publish / Subscribe&lt;br&gt;to MQTT Topic" style="text;html=1;align=center;verticalAlign=middle;resizable=0;points=[];autosize=1;strokeColor=none;fillColor=none;fontColor=#000000;" vertex="1" parent="1">
                    <mxGeometry x="384" y="649" width="130" height="40" as="geometry"/>
                </mxCell>
                <mxCell id="28" value="Publish / Subscribe&lt;br&gt;to MQTT Topic" style="text;html=1;align=center;verticalAlign=middle;resizable=0;points=[];autosize=1;strokeColor=none;fillColor=none;fontColor=#000000;" vertex="1" parent="1">
                    <mxGeometry x="580" y="580" width="130" height="40" as="geometry"/>
                </mxCell>
                <mxCell id="32" value="" style="html=1;endArrow=none;elbow=vertical;startArrow=block;startFill=1;strokeColor=#545B64;rounded=0;fontColor=#000000;shadow=0;" edge="1" parent="1">
                    <mxGeometry width="100" relative="1" as="geometry">
                        <mxPoint x="390" y="600" as="sourcePoint"/>
                        <mxPoint x="470" y="540" as="targetPoint"/>
                    </mxGeometry>
                </mxCell>
                <mxCell id="33" value="X" style="text;html=1;align=center;verticalAlign=middle;resizable=0;points=[];autosize=1;strokeColor=none;fillColor=none;fontColor=#000000;" vertex="1" parent="1">
                    <mxGeometry x="419" y="552" width="30" height="30" as="geometry"/>
                </mxCell>
                <mxCell id="36" value="Devices hidden&lt;br&gt;behind firewall/router" style="image;html=1;image=img/lib/clip_art/networking/Firewall-page1_128x128.png;labelBackgroundColor=#FFFFFF;fontColor=#000000;" vertex="1" parent="1">
                    <mxGeometry x="475" y="547" width="50" height="40" as="geometry"/>
                </mxCell>
                <mxCell id="40" value="" style="edgeStyle=elbowEdgeStyle;rounded=0;elbow=vertical;html=1;labelBackgroundColor=#ffffff;endArrow=classic;endFill=1;endSize=6;jettySize=auto;orthogonalLoop=1;strokeWidth=1;fontSize=14;shadow=0;fontColor=#000000;strokeColor=#000000;" edge="1" parent="1">
                    <mxGeometry width="60" height="60" relative="1" as="geometry">
                        <mxPoint x="680" y="630" as="sourcePoint"/>
                        <mxPoint x="410" y="830" as="targetPoint"/>
                        <Array as="points">
                            <mxPoint x="460" y="830"/>
                        </Array>
                    </mxGeometry>
                </mxCell>
                <mxCell id="41" value="Enables Node.js server to&lt;br&gt;communicate with IoT Devices" style="text;html=1;align=center;verticalAlign=middle;resizable=0;points=[];autosize=1;strokeColor=none;fillColor=none;fontColor=#000000;" vertex="1" parent="1">
                    <mxGeometry x="650" y="850" width="190" height="40" as="geometry"/>
                </mxCell>
            </root>
        </mxGraphModel>
    </diagram>
</mxfile>